<svg width="470" height="217" viewBox="0 0 470 217"
  xmlns="http://www.w3.org/2000/svg">

  <style>
    svg { font-family: 'SF Mono', 'Fira Code', 'Consolas', monospace; }
  </style>

  <rect width="470" height="217" rx="8" fill="#ffffff" stroke="#e1e4e8" stroke-width="1"/>

  <text x="24" y="22" font-size="9" font-weight="500" letter-spacing="1.5"
    fill="#8b949e" font-family="'SF Mono','Fira Code',monospace">GOALS</text>
  <text x="72" y="22" font-size="9" fill="#8b949e"
    font-family="'SF Mono','Fira Code',monospace">BOJ Platinum · LC Top Interview 150 · Codetree Trails</text>

  <line x1="24" y1="30" x2="446" y2="30" stroke="#e1e4e8" stroke-width="0.5"/>

  <text x="24" y="46" font-size="9" font-weight="500" letter-spacing="1.5"
    fill="#8b949e" font-family="'SF Mono','Fira Code',monospace">PROGRESS</text>

  
  <text x="24" y="64" font-family="'SF Mono','Fira Code',monospace"
    font-size="12" font-weight="500" fill="#24292f">BOJ</text>
  <g transform="translate(24, 70)">
    <rect width="80" height="19" rx="4" fill="#E1F5EE"/>
    <text x="40" y="13.5" font-family="'SF Mono','Fira Code',monospace"
      font-size="10.5" font-weight="500" fill="#0F6E56" text-anchor="middle">Silver II</text>
  </g>
  <text x="446" y="81" font-family="'SF Mono','Fira Code',monospace"
    font-size="10" fill="#8b949e" text-anchor="end">→ Platinum</text>
  <rect x="24" y="94" width="422" height="4" rx="2" fill="#eaeef2"/>
  <rect x="24" y="94" width="190" height="4" rx="2" fill="#1D9E75"/>

  
  <text x="24" y="118" font-family="'SF Mono','Fira Code',monospace"
    font-size="12" font-weight="500" fill="#24292f">LC Top150</text>
  <g transform="translate(24, 124)">
    <rect width="80" height="19" rx="4" fill="#FAEEDA"/>
    <text x="40" y="13.5" font-family="'SF Mono','Fira Code',monospace"
      font-size="10.5" font-weight="500" fill="#854F0B" text-anchor="middle">2 / 150</text>
  </g>
  <text x="446" y="135" font-family="'SF Mono','Fira Code',monospace"
    font-size="10" fill="#8b949e" text-anchor="end">1%</text>
  <rect x="24" y="148" width="422" height="4" rx="2" fill="#eaeef2"/>
  <rect x="24" y="148" width="6" height="4" rx="2" fill="#EF9F27"/>

  
  <text x="24" y="172" font-family="'SF Mono','Fira Code',monospace"
    font-size="12" font-weight="500" fill="#24292f">Codetrails</text>
  <g transform="translate(24, 178)">
    <rect width="80" height="19" rx="4" fill="#E6E9FA"/>
    <text x="40" y="13.5" font-family="'SF Mono','Fira Code',monospace"
      font-size="10.5" font-weight="500" fill="#3A4CB4" text-anchor="middle">0 / 7</text>
  </g>
  <text x="446" y="189" font-family="'SF Mono','Fira Code',monospace"
    font-size="10" fill="#8b949e" text-anchor="end">0%</text>
  <rect x="24" y="202" width="422" height="4" rx="2" fill="#eaeef2"/>
  <rect x="24" y="202" width="0" height="4" rx="2" fill="#5468DB"/>


</svg>